<svg xmlns="http://www.w3.org/2000/svg" xmlns:xlink="http://www.w3.org/1999/xlink" viewBox="0 0 25.09 24.44"><defs><style>.cls-1{fill:none;}.cls-2{clip-path:url(#clip-path);}.cls-3{fill:#fff;}</style><clipPath id="clip-path"><rect id="_Rectangle_" data-name="&lt;Rectangle&gt;" class="cls-1" width="25.09" height="24.44"/></clipPath></defs><title>Asset 2</title><g id="Layer_2" data-name="Layer 2"><g id="Layer_1-2" data-name="Layer 1"><g class="cls-2"><path class="cls-3" d="M21.72,0H3.38A3.33,3.33,0,0,0,0,3.29V21.15a3.33,3.33,0,0,0,3.38,3.29h9.07l0-8.72H10.12a.54.54,0,0,1-.55-.53V12.37a.54.54,0,0,1,.55-.54h2.34V9.09a4.54,4.54,0,0,1,4.91-4.91h2.33a.54.54,0,0,1,.55.54V7.11a.54.54,0,0,1-.54.54H18.25c-1.57,0-1.87.73-1.87,1.81v2.37H19.8a.52.52,0,0,1,.54.58L20,15.22a.59.59,0,0,1-.55.5H16.38l0,8.72h5.35a3.33,3.33,0,0,0,3.38-3.29V3.29A3.33,3.33,0,0,0,21.72,0Z"/></g></g></g></svg>