<svg xmlns="http://www.w3.org/2000/svg" xmlns:xlink="http://www.w3.org/1999/xlink" viewBox="0 0 75.27 73.33"><defs><style>.cls-1{fill:none;}.cls-2{clip-path:url(#clip-path);}.cls-3{fill:#3c5a97;}</style><clipPath id="clip-path"><rect id="_Rectangle_" data-name="&lt;Rectangle&gt;" class="cls-1" width="75.27" height="73.33"/></clipPath></defs><title>Asset 3</title><g id="Layer_2" data-name="Layer 2"><g id="Layer_15" data-name="Layer 15"><g id="Layer_16" data-name="Layer 16"><g class="cls-2"><path class="cls-3" d="M65.16,0h-55A10,10,0,0,0,0,9.88V63.46a10,10,0,0,0,10.14,9.87H37.36l0-26.17h-7a1.63,1.63,0,0,1-1.65-1.6l0-8.45a1.63,1.63,0,0,1,1.65-1.61h7V27.28c0-9.54,6-14.73,14.71-14.73h7a1.63,1.63,0,0,1,1.65,1.61v7.17A1.63,1.63,0,0,1,59.09,23H54.74c-4.7,0-5.61,2.2-5.61,5.42V35.5H59.39A1.53,1.53,0,0,1,61,37.23l-1,8.44a1.76,1.76,0,0,1-1.64,1.49H49.13l0,26.17h16a10,10,0,0,0,10.14-9.87V9.88A10,10,0,0,0,65.16,0Z"/></g></g></g></g></svg>