<svg xmlns="http://www.w3.org/2000/svg" xmlns:xlink="http://www.w3.org/1999/xlink" viewBox="0 0 25.09 24.44"><defs><style>.cls-1{fill:none;}.cls-2{clip-path:url(#clip-path);}.cls-3{fill:#fff;}</style><clipPath id="clip-path"><rect class="cls-1" width="25.09" height="24.44"/></clipPath></defs><title>Asset 3</title><g id="Layer_2" data-name="Layer 2"><g id="Layer_1-2" data-name="Layer 1"><g class="cls-2"><path class="cls-3" d="M17.61,0H7.47A7.38,7.38,0,0,0,0,7.28v9.88a7.38,7.38,0,0,0,7.47,7.28H17.61a7.38,7.38,0,0,0,7.48-7.28V7.28A7.39,7.39,0,0,0,17.61,0Zm5,17.18A4.87,4.87,0,0,1,17.64,22H7.5a4.89,4.89,0,0,1-4.95-4.82V7.31a4.89,4.89,0,0,1,5-4.83H17.63a4.89,4.89,0,0,1,4.95,4.83v9.87Z"/><path class="cls-3" d="M12.56,5.9a6.42,6.42,0,0,0-6.49,6.32,6.42,6.42,0,0,0,6.49,6.33,6.42,6.42,0,0,0,6.49-6.33A6.42,6.42,0,0,0,12.56,5.9Zm0,10.19a3.87,3.87,0,1,1,4-3.87A3.91,3.91,0,0,1,12.56,16.09Z"/><ellipse class="cls-3" cx="19.06" cy="5.95" rx="1.55" ry="1.52"/></g></g></g></svg>