<svg xmlns="http://www.w3.org/2000/svg" viewBox="0 0 24.68 16.22"><defs><style>.cls-1{fill:#fff;}</style></defs><title>Asset 8</title><g id="Layer_2" data-name="Layer 2"><g id="Layer_24" data-name="Layer 24"><g id="Layer_25" data-name="Layer 25"><path class="cls-1" d="M2.33.93l8.85,6.45a2.42,2.42,0,0,0,1.49.4,2.44,2.44,0,0,0,1.49-.4L23,.93c.71-.51.55-.93-.35-.93h-20C1.78,0,1.62.42,2.33.93Z"/><path class="cls-1" d="M23.37,3,13.66,9.79a2.28,2.28,0,0,1-1.32.36A2.25,2.25,0,0,1,11,9.79L1.3,3C.59,2.54,0,2.8,0,3.63V14.71a1.59,1.59,0,0,0,1.64,1.51H23.05a1.58,1.58,0,0,0,1.63-1.51V3.64C24.68,2.81,24.09,2.54,23.37,3Z"/></g></g></g></svg>