<svg xmlns="http://www.w3.org/2000/svg" viewBox="0 0 26.24 26.24"><defs><style>.cls-1{fill:#fff;}</style></defs><title>Asset 7</title><g id="Layer_2" data-name="Layer 2"><g id="Layer_24" data-name="Layer 24"><g id="Layer_25" data-name="Layer 25"><path class="cls-1" d="M26.13,20.92l-.14-.4a3.65,3.65,0,0,0-2.25-2.13l-3.45-.94a3.37,3.37,0,0,0-2.95.77l-1.25,1.25a13.24,13.24,0,0,1-9.31-9.32L8,8.9A3.37,3.37,0,0,0,8.8,6L7.86,2.5A3.72,3.72,0,0,0,5.72.25L5.33.12A3.12,3.12,0,0,0,2.41.81L.55,2.67A3.42,3.42,0,0,0,0,4,22,22,0,0,0,22.23,26.24a3.47,3.47,0,0,0,1.34-.54l1.87-1.87A3.15,3.15,0,0,0,26.13,20.92Z"/></g></g></g></svg>