<svg xmlns="http://www.w3.org/2000/svg" viewBox="0 0 19.8 28.16"><defs><style>.cls-1{fill:#fff;}</style></defs><title>Asset 9</title><g id="Layer_2" data-name="Layer 2"><g id="Layer_24" data-name="Layer 24"><g id="Layer_25" data-name="Layer 25"><path class="cls-1" d="M9.9,0A9.9,9.9,0,0,0,1.48,15.11L9.34,27.77a.82.82,0,0,0,.7.39h0a.83.83,0,0,0,.71-.4L18.4,15A9.9,9.9,0,0,0,9.9,0ZM17,14.11,10,25.74,2.88,14.23A8.26,8.26,0,1,1,17,14.11Z"/><path class="cls-1" d="M9.9,4.94a5,5,0,1,0,4.95,5A5,5,0,0,0,9.9,4.94Zm0,8.26a3.31,3.31,0,1,1,3.31-3.31A3.31,3.31,0,0,1,9.9,13.2Z"/></g></g></g></svg>