<svg xmlns="http://www.w3.org/2000/svg" xmlns:xlink="http://www.w3.org/1999/xlink" viewBox="0 0 25.09 24.44"><defs><style>.cls-1{fill:none;}.cls-2{clip-path:url(#clip-path);}.cls-3{fill:#fff;}</style><clipPath id="clip-path" transform="translate(0 0)"><rect id="_Rectangle_" data-name="&lt;Rectangle&gt;" class="cls-1" width="25.09" height="24.44"/></clipPath></defs><title>Asset 5</title><g id="Layer_2" data-name="Layer 2"><g id="Layer_1-2" data-name="Layer 1"><g class="cls-2"><path class="cls-3" d="M25.08,12.58A12.38,12.38,0,0,0,12.36,0,12.42,12.42,0,0,0,0,12.32a12.21,12.21,0,0,0,7.07,10.9.35.35,0,0,0,.5-.32,9.09,9.09,0,0,1,.16-2.31l1.19-4.93A5.86,5.86,0,0,0,9,13.16a4.58,4.58,0,0,1-.09-.95c0-1.81,1.07-3.16,2.41-3.16A1.65,1.65,0,0,1,13,10.88c0,1.12-.73,2.78-1.11,4.33a1.9,1.9,0,0,0,2,2.34c2.37,0,4.19-2.43,4.19-5.94a5.21,5.21,0,0,0-5.57-5.29,5.7,5.7,0,0,0-6,5.64,5,5,0,0,0,1,3,.39.39,0,0,1,.09.38c-.1.41-.32,1.29-.37,1.47s-.19.29-.44.17C5.07,16.19,4,13.82,4,11.91c0-4.1,3.06-7.86,8.81-7.86,4.63,0,8.22,3.21,8.22,7.5,0,4.48-2.9,8.08-6.92,8.08a4,4,0,0,1-2.67-1,.34.34,0,0,0-.56.14l-.66,2.45a11,11,0,0,1-1,2.34.34.34,0,0,0,.22.5,13.06,13.06,0,0,0,3.21.37A12.59,12.59,0,0,0,25.08,12.58Z" transform="translate(0 0)"/></g></g></g></svg>